<svg xmlns="http://www.w3.org/2000/svg" viewBox="0 0 64 64" fill="none">
  <defs>
    <linearGradient id="bg" x1="0%" y1="0%" x2="100%" y2="100%">
      <stop offset="0%" style="stop-color:#3B82F6"/>
      <stop offset="50%" style="stop-color:#6366F1"/>
      <stop offset="100%" style="stop-color:#8B5CF6"/>
    </linearGradient>
    <linearGradient id="shine" x1="0%" y1="0%" x2="100%" y2="100%">
      <stop offset="0%" style="stop-color:rgba(255,255,255,0.4)"/>
      <stop offset="50%" style="stop-color:rgba(255,255,255,0.1)"/>
      <stop offset="100%" style="stop-color:rgba(255,255,255,0)"/>
    </linearGradient>
  </defs>
  <!-- 背景圆角矩形 -->
  <rect width="64" height="64" rx="14" fill="url(#bg)"/>
  <!-- 高光层 -->
  <rect width="64" height="64" rx="14" fill="url(#shine)"/>
  <!-- 建筑主体 - 左塔楼 -->
  <path d="M12 44V26h8v18h-8z" fill="white" opacity="0.95"/>
  <rect x="13" y="28" width="2" height="2" rx="0.5" fill="#3B82F6" opacity="0.7"/>
  <rect x="17" y="28" width="2" height="2" rx="0.5" fill="#3B82F6" opacity="0.7"/>
  <rect x="13" y="33" width="2" height="2" rx="0.5" fill="#3B82F6" opacity="0.7"/>
  <rect x="17" y="33" width="2" height="2" rx="0.5" fill="#3B82F6" opacity="0.7"/>
  <rect x="13" y="38" width="2" height="2" rx="0.5" fill="#3B82F6" opacity="0.7"/>
  <rect x="17" y="38" width="2" height="2" rx="0.5" fill="#3B82F6" opacity="0.7"/>
  <!-- 建筑主体 - 中间主楼（最高） -->
  <path d="M24 46V16h16v30H24z" fill="white" opacity="0.95"/>
  <path d="M32 10l-8 6h16l-8-6z" fill="white" opacity="0.9"/>
  <rect x="27" y="20" width="2.5" height="3" rx="0.5" fill="#6366F1" opacity="0.6"/>
  <rect x="31.5" y="20" width="2.5" height="3" rx="0.5" fill="#6366F1" opacity="0.6"/>
  <rect x="36" y="20" width="2.5" height="3" rx="0.5" fill="#6366F1" opacity="0.6"/>
  <rect x="27" y="27" width="2.5" height="3" rx="0.5" fill="#6366F1" opacity="0.6"/>
  <rect x="31.5" y="27" width="2.5" height="3" rx="0.5" fill="#6366F1" opacity="0.6"/>
  <rect x="36" y="27" width="2.5" height="3" rx="0.5" fill="#6366F1" opacity="0.6"/>
  <rect x="27" y="34" width="2.5" height="3" rx="0.5" fill="#6366F1" opacity="0.6"/>
  <rect x="31.5" y="34" width="2.5" height="3" rx="0.5" fill="#6366F1" opacity="0.6"/>
  <rect x="36" y="34" width="2.5" height="3" rx="0.5" fill="#6366F1" opacity="0.6"/>
  <rect x="27" y="41" width="2.5" height="3" rx="0.5" fill="#6366F1" opacity="0.6"/>
  <rect x="31.5" y="41" width="2.5" height="3" rx="0.5" fill="#6366F1" opacity="0.6"/>
  <rect x="36" y="41" width="2.5" height="3" rx="0.5" fill="#6366F1" opacity="0.6"/>
  <!-- 大门 -->
  <rect x="29.5" y="40" width="5" height="6" rx="2" fill="#3B82F6" opacity="0.5"/>
  <!-- 建筑主体 - 右翼楼 -->
  <path d="M44 44V22h8v22h-8z" fill="white" opacity="0.9"/>
  <rect x="45.5" y="25" width="2" height="2" rx="0.5" fill="#8B5CF6" opacity="0.65"/>
  <rect x="49" y="25" width="2" height="2" rx="0.5" fill="#8B5CF6" opacity="0.65"/>
  <rect x="45.5" y="30" width="2" height="2" rx="0.5" fill="#8B5CF6" opacity="0.65"/>
  <rect x="49" y="30" width="2" height="2" rx="0.5" fill="#8B5CF6" opacity="0.65"/>
  <rect x="45.5" y="35" width="2" height="2" rx="0.5" fill="#8B5CF6" opacity="0.65"/>
  <rect x="49" y="35" width="2" height="2" rx="0.5" fill="#8B5CF6" opacity="0.65"/>
  <rect x="45.5" y="40" width="2" height="2" rx="0.5" fill="#8B5CF6" opacity="0.65"/>
  <rect x="49" y="40" width="2" height="2" rx="0.5" fill="#8B5CF6" opacity="0.65"/>
</svg>
